<svg xmlns="http://www.w3.org/2000/svg" xmlns:xlink="http://www.w3.org/1999/xlink" version="1.1" data-diagram-type="DESCRIPTION" style="width:702px;height:2072px;background:#FFFFFF;" width="702px" height="2072px" viewBox="0 0 702 2072" zoomAndPan="magnify" preserveAspectRatio="none" contentStyleType="text/css"><?plantuml 1.2026.7beta3?><defs/><g><!--cluster 学校宿舍管理收费系统--><g class="cluster" data-qualified-name=".........." id="ent0003" data-source-line="60"><rect x="89.91" y="68.07" width="598.32" height="1271" fill="#FAFAFA" style="stroke:#000000;stroke-width:2;" rx="2.5" ry="2.5"/><text x="324.0699" y="82.1369" fill="#000000" font-size="13" lengthAdjust="spacing" textLength="130.0002" font-weight="700" font-family="'Microsoft YaHei'">学校宿舍管理收费系统</text></g><!--cluster PKG_A--><g class="cluster" data-qualified-name="...........PKG_A" id="ent0004" data-source-line="62"><path d="M116.41,110.07 L205.4094,110.07 A3.75,3.75 0 0 1 207.9094,112.57 L214.9094,128.8747 L278.23,128.8747 A2.5,2.5 0 0 1 280.73,131.3747 L280.73,554.57 A2.5,2.5 0 0 1 278.23,557.07 L116.41,557.07 A2.5,2.5 0 0 1 113.91,554.57 L113.91,112.57 A2.5,2.5 0 0 1 116.41,110.07" style="stroke:#000000;stroke-width:1;" fill="#FFFFFF"/><line x1="113.91" y1="128.8747" x2="214.9094" y2="128.8747" style="stroke:#000000;stroke-width:1;"/><text x="117.91" y="122.2804" fill="#000000" font-size="11" lengthAdjust="spacing" textLength="87.9994" font-weight="700" font-family="'Microsoft YaHei'">学生宿舍信息管理</text></g><!--cluster PKG_B--><g class="cluster" data-qualified-name="...........PKG_B" id="ent0010" data-source-line="70"><path d="M116.41,868.07 L205.4094,868.07 A3.75,3.75 0 0 1 207.9094,870.57 L214.9094,886.8747 L278.23,886.8747 A2.5,2.5 0 0 1 280.73,889.3747 L280.73,1312.57 A2.5,2.5 0 0 1 278.23,1315.07 L116.41,1315.07 A2.5,2.5 0 0 1 113.91,1312.57 L113.91,870.57 A2.5,2.5 0 0 1 116.41,868.07" style="stroke:#000000;stroke-width:1;" fill="#FFFFFF"/><line x1="113.91" y1="886.8747" x2="214.9094" y2="886.8747" style="stroke:#000000;stroke-width:1;"/><text x="117.91" y="880.2804" fill="#000000" font-size="11" lengthAdjust="spacing" textLength="87.9994" font-weight="700" font-family="'Microsoft YaHei'">宿舍收费项目管理</text></g><!--cluster PKG_D--><g class="cluster" data-qualified-name="...........PKG_D" id="ent0016" data-source-line="78"><path d="M307.23,384.07 L352.2297,384.07 A3.75,3.75 0 0 1 354.7297,386.57 L361.7297,402.8747 L661.73,402.8747 A2.5,2.5 0 0 1 664.23,405.3747 L664.23,554.57 A2.5,2.5 0 0 1 661.73,557.07 L307.23,557.07 A2.5,2.5 0 0 1 304.73,554.57 L304.73,386.57 A2.5,2.5 0 0 1 307.23,384.07" style="stroke:#000000;stroke-width:1;" fill="#FFFFFF"/><line x1="304.73" y1="402.8747" x2="361.7297" y2="402.8747" style="stroke:#000000;stroke-width:1;"/><text x="308.73" y="396.2804" fill="#000000" font-size="11" lengthAdjust="spacing" textLength="43.9997" font-weight="700" font-family="'Microsoft YaHei'">在线缴费</text></g><!--cluster PKG_C--><g class="cluster" data-qualified-name="...........PKG_C" id="ent0020" data-source-line="84"><path d="M312.35,964.07 L379.3495,964.07 A3.75,3.75 0 0 1 381.8495,966.57 L388.8495,982.8747 L651.36,982.8747 A2.5,2.5 0 0 1 653.86,985.3747 L653.86,1312.57 A2.5,2.5 0 0 1 651.36,1315.07 L312.35,1315.07 A2.5,2.5 0 0 1 309.85,1312.57 L309.85,966.57 A2.5,2.5 0 0 1 312.35,964.07" style="stroke:#000000;stroke-width:1;" fill="#FFFFFF"/><line x1="309.85" y1="982.8747" x2="388.8495" y2="982.8747" style="stroke:#000000;stroke-width:1;"/><text x="313.85" y="976.2804" fill="#000000" font-size="11" lengthAdjust="spacing" textLength="65.9995" font-weight="700" font-family="'Microsoft YaHei'">缴费记录管理</text></g><!--cluster PKG_E--><g class="cluster" data-qualified-name="...........PKG_E" id="ent0026" data-source-line="92"><path d="M116.41,581.07 L194.4095,581.07 A3.75,3.75 0 0 1 196.9095,583.57 L203.9095,599.8747 L474.17,599.8747 A2.5,2.5 0 0 1 476.67,602.3747 L476.67,841.57 A2.5,2.5 0 0 1 474.17,844.07 L116.41,844.07 A2.5,2.5 0 0 1 113.91,841.57 L113.91,583.57 A2.5,2.5 0 0 1 116.41,581.07" style="stroke:#000000;stroke-width:1;" fill="#FFFFFF"/><line x1="113.91" y1="599.8747" x2="203.9095" y2="599.8747" style="stroke:#000000;stroke-width:1;"/><text x="117.91" y="593.2804" fill="#000000" font-size="11" lengthAdjust="spacing" textLength="76.9995" font-weight="700" font-family="'Microsoft YaHei'">收费统计与报表</text></g><!--entity UC01--><g class="entity" data-qualified-name="...........PKG_A.UC01" id="ent0005" data-source-line="63"><ellipse cx="197.3217" cy="525.0723" rx="67.4117" ry="15.8823" fill="#FEFECE" style="stroke:#8B6914;stroke-width:1.5;"/><text x="143.1984" y="528.5567" fill="#000000" font-size="12" lengthAdjust="spacing" textLength="108.2466" font-family="'Microsoft YaHei'">UC01 录入学生信息</text></g><!--entity UC02--><g class="entity" data-qualified-name="...........PKG_A.UC02" id="ent0006" data-source-line="64"><ellipse cx="197.3217" cy="249.0723" rx="67.4117" ry="15.8823" fill="#FEFECE" style="stroke:#8B6914;stroke-width:1.5;"/><text x="143.1984" y="252.5567" fill="#000000" font-size="12" lengthAdjust="spacing" textLength="108.2466" font-family="'Microsoft YaHei'">UC02 查询学生信息</text></g><!--entity UC03--><g class="entity" data-qualified-name="...........PKG_A.UC03" id="ent0007" data-source-line="65"><ellipse cx="197.3217" cy="433.0723" rx="67.4117" ry="15.8823" fill="#FEFECE" style="stroke:#8B6914;stroke-width:1.5;"/><text x="143.1984" y="436.5567" fill="#000000" font-size="12" lengthAdjust="spacing" textLength="108.2466" font-family="'Microsoft YaHei'">UC03 更新学生信息</text></g><!--entity UC04--><g class="entity" data-qualified-name="...........PKG_A.UC04" id="ent0008" data-source-line="66"><ellipse cx="197.3217" cy="341.0723" rx="67.4117" ry="15.8823" fill="#FEFECE" style="stroke:#8B6914;stroke-width:1.5;"/><text x="143.1984" y="344.5567" fill="#000000" font-size="12" lengthAdjust="spacing" textLength="108.2466" font-family="'Microsoft YaHei'">UC04 删除学生信息</text></g><!--entity UC22--><g class="entity" data-qualified-name="...........PKG_A.UC22" id="ent0009" data-source-line="67"><ellipse cx="197.3217" cy="157.0723" rx="67.4117" ry="15.8823" fill="#FEFECE" style="stroke:#8B6914;stroke-width:1.5;"/><text x="143.1984" y="160.5567" fill="#000000" font-size="12" lengthAdjust="spacing" textLength="108.2466" font-family="'Microsoft YaHei'">UC22 智能咨询问答</text></g><!--entity UC05--><g class="entity" data-qualified-name="...........PKG_B.UC05" id="ent0011" data-source-line="71"><ellipse cx="197.3217" cy="1283.0723" rx="67.4117" ry="15.8823" fill="#FEFECE" style="stroke:#8B6914;stroke-width:1.5;"/><text x="143.1984" y="1286.5567" fill="#000000" font-size="12" lengthAdjust="spacing" textLength="108.2466" font-family="'Microsoft YaHei'">UC05 录入收费项目</text></g><!--entity UC06--><g class="entity" data-qualified-name="...........PKG_B.UC06" id="ent0012" data-source-line="72"><ellipse cx="197.3217" cy="1191.0723" rx="67.4117" ry="15.8823" fill="#FEFECE" style="stroke:#8B6914;stroke-width:1.5;"/><text x="143.1984" y="1194.5567" fill="#000000" font-size="12" lengthAdjust="spacing" textLength="108.2466" font-family="'Microsoft YaHei'">UC06 查询收费项目</text></g><!--entity UC07--><g class="entity" data-qualified-name="...........PKG_B.UC07" id="ent0013" data-source-line="73"><ellipse cx="197.3217" cy="1099.0723" rx="67.4117" ry="15.8823" fill="#FEFECE" style="stroke:#8B6914;stroke-width:1.5;"/><text x="143.1984" y="1102.5567" fill="#000000" font-size="12" lengthAdjust="spacing" textLength="108.2466" font-family="'Microsoft YaHei'">UC07 编辑收费项目</text></g><!--entity UC08--><g class="entity" data-qualified-name="...........PKG_B.UC08" id="ent0014" data-source-line="74"><ellipse cx="197.3217" cy="1007.0723" rx="67.4117" ry="15.8823" fill="#FEFECE" style="stroke:#8B6914;stroke-width:1.5;"/><text x="143.1984" y="1010.5567" fill="#000000" font-size="12" lengthAdjust="spacing" textLength="108.2466" font-family="'Microsoft YaHei'">UC08 删除收费项目</text></g><!--entity UC09--><g class="entity" data-qualified-name="...........PKG_B.UC09" id="ent0015" data-source-line="75"><ellipse cx="197.3217" cy="915.0723" rx="67.4117" ry="15.8823" fill="#FEFECE" style="stroke:#8B6914;stroke-width:1.5;"/><text x="143.1984" y="918.5567" fill="#000000" font-size="12" lengthAdjust="spacing" textLength="108.2466" font-family="'Microsoft YaHei'">UC09 调整收费标准</text></g><!--entity UC15--><g class="entity" data-qualified-name="...........PKG_D.UC15" id="ent0017" data-source-line="79"><ellipse cx="393.2595" cy="524.0659" rx="72.5295" ry="16.9059" fill="#FEFECE" style="stroke:#8B6914;stroke-width:1.5;"/><text x="333.1362" y="527.5503" fill="#000000" font-size="12" lengthAdjust="spacing" textLength="120.2467" font-family="'Microsoft YaHei'">UC15 支付宝在线缴费</text></g><!--entity UC16--><g class="entity" data-qualified-name="...........PKG_D.UC16" id="ent0018" data-source-line="80"><ellipse cx="570.4486" cy="523.0657" rx="77.7786" ry="17.9557" fill="#FEFECE" style="stroke:#8B6914;stroke-width:1.5;"/><text x="504.3252" y="526.5501" fill="#000000" font-size="12" lengthAdjust="spacing" textLength="132.2468" font-family="'Microsoft YaHei'">UC16 支付结果回调处理</text></g><!--entity UC17--><g class="entity" data-qualified-name="...........PKG_D.UC17" id="ent0019" data-source-line="81"><ellipse cx="393.2617" cy="431.0723" rx="67.4117" ry="15.8823" fill="#FEFECE" style="stroke:#8B6914;stroke-width:1.5;"/><text x="339.1384" y="434.5567" fill="#000000" font-size="12" lengthAdjust="spacing" textLength="108.2466" font-family="'Microsoft YaHei'">UC17 查询支付记录</text></g><!--entity UC10--><g class="entity" data-qualified-name="...........PKG_C.UC10" id="ent0021" data-source-line="85"><ellipse cx="393.2617" cy="1011.0723" rx="67.4117" ry="15.8823" fill="#FEFECE" style="stroke:#8B6914;stroke-width:1.5;"/><text x="339.1384" y="1014.5567" fill="#000000" font-size="12" lengthAdjust="spacing" textLength="108.2466" font-family="'Microsoft YaHei'">UC10 生成缴费账单</text></g><!--entity UC11--><g class="entity" data-qualified-name="...........PKG_C.UC11" id="ent0022" data-source-line="86"><ellipse cx="393.2566" cy="1101.0733" rx="57.7166" ry="13.9433" fill="#FEFECE" style="stroke:#8B6914;stroke-width:1.5;"/><text x="351.1333" y="1104.5577" fill="#000000" font-size="12" lengthAdjust="spacing" textLength="84.2465" font-family="'Microsoft YaHei'">UC11 查询账单</text></g><!--entity UC12--><g class="entity" data-qualified-name="...........PKG_C.UC12" id="ent0023" data-source-line="87"><ellipse cx="570.4517" cy="1011.0723" rx="67.4117" ry="15.8823" fill="#FEFECE" style="stroke:#8B6914;stroke-width:1.5;"/><text x="516.3284" y="1014.5567" fill="#000000" font-size="12" lengthAdjust="spacing" textLength="108.2466" font-family="'Microsoft YaHei'">UC12 更新账单状态</text></g><!--entity UC13--><g class="entity" data-qualified-name="...........PKG_C.UC13" id="ent0024" data-source-line="88"><ellipse cx="393.2617" cy="1191.0723" rx="67.4117" ry="15.8823" fill="#FEFECE" style="stroke:#8B6914;stroke-width:1.5;"/><text x="339.1384" y="1194.5567" fill="#000000" font-size="12" lengthAdjust="spacing" textLength="108.2466" font-family="'Microsoft YaHei'">UC13 导入缴费记录</text></g><!--entity UC14--><g class="entity" data-qualified-name="...........PKG_C.UC14" id="ent0025" data-source-line="89"><ellipse cx="393.2617" cy="1283.0723" rx="67.4117" ry="15.8823" fill="#FEFECE" style="stroke:#8B6914;stroke-width:1.5;"/><text x="339.1384" y="1286.5567" fill="#000000" font-size="12" lengthAdjust="spacing" textLength="108.2466" font-family="'Microsoft YaHei'">UC14 导出缴费记录</text></g><!--entity UC18--><g class="entity" data-qualified-name="...........PKG_E.UC18" id="ent0027" data-source-line="93"><ellipse cx="197.3217" cy="812.0723" rx="67.4117" ry="15.8823" fill="#FEFECE" style="stroke:#8B6914;stroke-width:1.5;"/><text x="143.1984" y="815.5567" fill="#000000" font-size="12" lengthAdjust="spacing" textLength="108.2466" font-family="'Microsoft YaHei'">UC18 收费情况统计</text></g><!--entity UC19--><g class="entity" data-qualified-name="...........PKG_E.UC19" id="ent0028" data-source-line="94"><ellipse cx="197.3217" cy="720.0723" rx="67.4117" ry="15.8823" fill="#FEFECE" style="stroke:#8B6914;stroke-width:1.5;"/><text x="143.1984" y="723.5567" fill="#000000" font-size="12" lengthAdjust="spacing" textLength="108.2466" font-family="'Microsoft YaHei'">UC19 生成收费报表</text></g><!--entity UC20--><g class="entity" data-qualified-name="...........PKG_E.UC20" id="ent0029" data-source-line="95"><ellipse cx="393.2617" cy="766.0723" rx="67.4117" ry="15.8823" fill="#FEFECE" style="stroke:#8B6914;stroke-width:1.5;"/><text x="339.1384" y="769.5567" fill="#000000" font-size="12" lengthAdjust="spacing" textLength="108.2466" font-family="'Microsoft YaHei'">UC20 导出收费报表</text></g><!--entity UC21--><g class="entity" data-qualified-name="...........PKG_E.UC21" id="ent0030" data-source-line="96"><ellipse cx="197.3217" cy="628.0723" rx="67.4117" ry="15.8823" fill="#FEFECE" style="stroke:#8B6914;stroke-width:1.5;"/><text x="143.1984" y="631.5567" fill="#000000" font-size="12" lengthAdjust="spacing" textLength="108.2466" font-family="'Microsoft YaHei'">UC21 逾期账单提醒</text></g><!--entity Student--><g class="entity" data-qualified-name="Student" id="ent0001" data-source-line="57"><ellipse cx="39.95" cy="14" rx="8" ry="8" fill="#F1F1F1" style="stroke:#000000;stroke-width:0.8;"/><path d="M39.95,22 L39.95,49 M26.95,30 L52.95,30 M39.95,49 L26.95,64 M39.95,49 L52.95,64" style="stroke:#000000;stroke-width:0.8;" fill="none"/><text x="26.95" y="77.8669" fill="#000000" font-size="13" lengthAdjust="spacing" textLength="26" font-family="'Microsoft YaHei'">学生</text></g><!--entity Time--><g class="entity" data-qualified-name="Time" id="ent0002" data-source-line="58"><ellipse cx="39.9536" cy="370.43" rx="8" ry="8" fill="#F1F1F1" style="stroke:#000000;stroke-width:0.8;"/><path d="M39.9536,378.43 L39.9536,405.43 M26.9536,386.43 L52.9536,386.43 M39.9536,405.43 L26.9536,420.43 M39.9536,405.43 L52.9536,420.43" style="stroke:#000000;stroke-width:0.8;" fill="none"/><text x="6" y="434.2969" fill="#000000" font-size="13" lengthAdjust="spacing" textLength="26" font-family="'Microsoft YaHei'">时间</text><text x="6" y="449.4297" fill="#000000" font-size="13" lengthAdjust="spacing" textLength="67.9073" font-family="'Microsoft YaHei'">«系统触发»</text></g><!--entity Admin--><g class="entity" data-qualified-name="Admin" id="ent0031" data-source-line="100"><ellipse cx="39.95" cy="1070" rx="8" ry="8" fill="#F1F1F1" style="stroke:#000000;stroke-width:0.8;"/><path d="M39.95,1078 L39.95,1105 M26.95,1086 L52.95,1086 M39.95,1105 L26.95,1120 M39.95,1105 L52.95,1120" style="stroke:#000000;stroke-width:0.8;" fill="none"/><text x="7.45" y="1133.8669" fill="#000000" font-size="13" lengthAdjust="spacing" textLength="65.0001" font-family="'Microsoft YaHei'">宿舍管理员</text></g><!--entity Alipay--><g class="entity" data-qualified-name="Alipay" id="ent0032" data-source-line="101"><ellipse cx="197.3201" cy="1977.43" rx="8" ry="8" fill="#F1F1F1" style="stroke:#000000;stroke-width:0.8;"/><path d="M197.3201,1985.43 L197.3201,2012.43 M184.3201,1993.43 L210.3201,1993.43 M197.3201,2012.43 L184.3201,2027.43 M197.3201,2012.43 L210.3201,2027.43" style="stroke:#000000;stroke-width:0.8;" fill="none"/><text x="151.82" y="2041.2969" fill="#000000" font-size="13" lengthAdjust="spacing" textLength="91.0001" font-family="'Microsoft YaHei'">支付宝支付系统</text><text x="151.82" y="2056.4297" fill="#000000" font-size="13" lengthAdjust="spacing" textLength="67.9073" font-family="'Microsoft YaHei'">«外部系统»</text></g><!--link Student to UC02--><g class="link" data-entity-1="ent0001" data-entity-2="ent0006" id="lnk33" data-source-line="105" data-link-type="dependency"><path d="M36.23,81.29 C36.23,139.52 36.23,243.77 36.23,243.77 C36.23,243.77 83.27,243.77 128.19,243.77" style="stroke:#000000;stroke-width:1;" fill="none" id="Student-to-UC02"/><polygon points="133.19,243.77,124.19,239.77,128.19,243.77,124.19,247.77,133.19,243.77" fill="#000000" style="stroke:#000000;stroke-width:1;stroke-linejoin:miter;stroke-miterlimit:10;"/></g><!--link Student to UC15--><g class="link" data-entity-1="ent0001" data-entity-2="ent0017" id="lnk34" data-source-line="106" data-link-type="dependency"><path d="M54.22,55.69 C109.32,55.69 305.23,55.69 305.23,55.69 C305.23,55.69 305.23,519.77 305.23,519.77 C305.23,519.77 307.39,519.77 317.62,519.77" style="stroke:#000000;stroke-width:1;" fill="none" id="Student-to-UC15"/><polygon points="322.62,519.77,313.62,515.77,317.62,519.77,313.62,523.77,322.62,519.77" fill="#000000" style="stroke:#000000;stroke-width:1;stroke-linejoin:miter;stroke-miterlimit:10;"/></g><!--link Student to UC17--><g class="link" data-entity-1="ent0001" data-entity-2="ent0019" id="lnk35" data-source-line="107" data-link-type="dependency"><path d="M53.84,30.45 C119.34,30.45 394.23,30.45 394.23,30.45 C394.23,30.45 394.23,334.92 394.23,409.87" style="stroke:#000000;stroke-width:1;" fill="none" id="Student-to-UC17"/><polygon points="394.23,414.87,398.23,405.87,394.23,409.87,390.23,405.87,394.23,414.87" fill="#000000" style="stroke:#000000;stroke-width:1;stroke-linejoin:miter;stroke-miterlimit:10;"/></g><!--link Student to UC22--><g class="link" data-entity-1="ent0001" data-entity-2="ent0009" id="lnk36" data-source-line="108" data-link-type="dependency"><path d="M45.23,81.34 C45.23,114.46 45.23,157.07 45.23,157.07 C45.23,157.07 84.11,157.07 124.72,157.07" style="stroke:#000000;stroke-width:1;" fill="none" id="Student-to-UC22"/><polygon points="129.72,157.07,120.72,153.07,124.72,157.07,120.72,161.07,129.72,157.07" fill="#000000" style="stroke:#000000;stroke-width:1;stroke-linejoin:miter;stroke-miterlimit:10;"/></g><!--link Time to UC10--><g class="link" data-entity-1="ent0002" data-entity-2="ent0021" id="lnk37" data-source-line="110" data-link-type="dependency"><path d="M74.38,388.41 C144.49,388.41 297.23,388.41 297.23,388.41 C297.23,388.41 297.23,1004.44 297.23,1004.44 C297.23,1004.44 307.77,1004.44 326.36,1004.44" style="stroke:#000000;stroke-width:1;" fill="none" id="Time-to-UC10"/><polygon points="331.36,1004.44,322.36,1000.44,326.36,1004.44,322.36,1008.44,331.36,1004.44" fill="#000000" style="stroke:#000000;stroke-width:1;stroke-linejoin:miter;stroke-miterlimit:10;"/></g><!--link Time to UC21--><g class="link" data-entity-1="ent0002" data-entity-2="ent0030" id="lnk38" data-source-line="111" data-link-type="dependency"><path d="M51.23,452.81 C51.23,516.13 51.23,622.77 51.23,622.77 C51.23,622.77 88.99,622.77 128.24,622.77" style="stroke:#000000;stroke-width:1;" fill="none" id="Time-to-UC21"/><polygon points="133.24,622.77,124.24,618.77,128.24,622.77,124.24,626.77,133.24,622.77" fill="#000000" style="stroke:#000000;stroke-width:1;stroke-linejoin:miter;stroke-miterlimit:10;"/></g><!--link Admin to UC01--><g class="link" data-entity-1="ent0031" data-entity-2="ent0005" id="lnk39" data-source-line="113" data-link-type="dependency"><path d="M15.23,1060.96 C15.23,932.76 15.23,525.07 15.23,525.07 C15.23,525.07 72.74,525.07 124.52,525.07" style="stroke:#000000;stroke-width:1;" fill="none" id="Admin-to-UC01"/><polygon points="129.52,525.07,120.52,521.07,124.52,525.07,120.52,529.07,129.52,525.07" fill="#000000" style="stroke:#000000;stroke-width:1;stroke-linejoin:miter;stroke-miterlimit:10;"/></g><!--link Admin to UC02--><g class="link" data-entity-1="ent0031" data-entity-2="ent0006" id="lnk40" data-source-line="114" data-link-type="dependency"><path d="M72.69,1064.34 C81.3,1064.34 88.23,1064.34 88.23,1064.34 C88.23,1064.34 88.23,254.36 88.23,254.36 C88.23,254.36 104.48,254.36 128.23,254.36" style="stroke:#000000;stroke-width:1;" fill="none" id="Admin-to-UC02"/><polygon points="133.23,254.36,124.23,250.36,128.23,254.36,124.23,258.36,133.23,254.36" fill="#000000" style="stroke:#000000;stroke-width:1;stroke-linejoin:miter;stroke-miterlimit:10;"/></g><!--link Admin to UC03--><g class="link" data-entity-1="ent0031" data-entity-2="ent0007" id="lnk41" data-source-line="115" data-link-type="dependency"><path d="M72.74,1070.62 C93.42,1070.62 116.23,1070.62 116.23,1070.62 C116.23,1070.62 116.23,433.07 116.23,433.07 C116.23,433.07 116.62,433.07 124.62,433.07" style="stroke:#000000;stroke-width:1;" fill="none" id="Admin-to-UC03"/><polygon points="129.62,433.07,120.62,429.07,124.62,433.07,120.62,437.07,129.62,433.07" fill="#000000" style="stroke:#000000;stroke-width:1;stroke-linejoin:miter;stroke-miterlimit:10;"/></g><!--link Admin to UC04--><g class="link" data-entity-1="ent0031" data-entity-2="ent0008" id="lnk42" data-source-line="116" data-link-type="dependency"><path d="M72.91,1067.48 C87.85,1067.48 102.23,1067.48 102.23,1067.48 C102.23,1067.48 102.23,341.07 102.23,341.07 C102.23,341.07 109.11,341.07 124.48,341.07" style="stroke:#000000;stroke-width:1;" fill="none" id="Admin-to-UC04"/><polygon points="129.48,341.07,120.48,337.07,124.48,341.07,120.48,345.07,129.48,341.07" fill="#000000" style="stroke:#000000;stroke-width:1;stroke-linejoin:miter;stroke-miterlimit:10;"/></g><!--link Admin to UC05--><g class="link" data-entity-1="ent0031" data-entity-2="ent0011" id="lnk43" data-source-line="117" data-link-type="dependency"><path d="M29.23,1137.19 C29.23,1191.09 29.23,1283.07 29.23,1283.07 C29.23,1283.07 77.78,1283.07 124.43,1283.07" style="stroke:#000000;stroke-width:1;" fill="none" id="Admin-to-UC05"/><polygon points="129.43,1283.07,120.43,1279.07,124.43,1283.07,120.43,1287.07,129.43,1283.07" fill="#000000" style="stroke:#000000;stroke-width:1;stroke-linejoin:miter;stroke-miterlimit:10;"/></g><!--link Admin to UC06--><g class="link" data-entity-1="ent0031" data-entity-2="ent0012" id="lnk44" data-source-line="118" data-link-type="dependency"><path d="M51.23,1137.28 C51.23,1162.56 51.23,1191.07 51.23,1191.07 C51.23,1191.07 86.56,1191.07 124.83,1191.07" style="stroke:#000000;stroke-width:1;" fill="none" id="Admin-to-UC06"/><polygon points="129.83,1191.07,120.83,1187.07,124.83,1191.07,120.83,1195.07,129.83,1191.07" fill="#000000" style="stroke:#000000;stroke-width:1;stroke-linejoin:miter;stroke-miterlimit:10;"/></g><!--link Admin to UC07--><g class="link" data-entity-1="ent0031" data-entity-2="ent0013" id="lnk45" data-source-line="119" data-link-type="dependency"><path d="M72.94,1099.07 C89.44,1099.07 105.03,1099.07 124.68,1099.07" style="stroke:#000000;stroke-width:1;" fill="none" id="Admin-to-UC07"/><polygon points="129.68,1099.07,120.68,1095.07,124.68,1099.07,120.68,1103.07,129.68,1099.07" fill="#000000" style="stroke:#000000;stroke-width:1;stroke-linejoin:miter;stroke-miterlimit:10;"/></g><!--link Admin to UC08--><g class="link" data-entity-1="ent0031" data-entity-2="ent0014" id="lnk46" data-source-line="120" data-link-type="dependency"><path d="M66.23,1060.85 C66.23,1035.57 66.23,1007.07 66.23,1007.07 C66.23,1007.07 92.48,1007.07 124.47,1007.07" style="stroke:#000000;stroke-width:1;" fill="none" id="Admin-to-UC08"/><polygon points="129.47,1007.07,120.47,1003.07,124.47,1007.07,120.47,1011.07,129.47,1007.07" fill="#000000" style="stroke:#000000;stroke-width:1;stroke-linejoin:miter;stroke-miterlimit:10;"/></g><!--link Admin to UC09--><g class="link" data-entity-1="ent0031" data-entity-2="ent0015" id="lnk47" data-source-line="121" data-link-type="dependency"><path d="M58.23,1060.94 C58.23,1007.05 58.23,915.07 58.23,915.07 C58.23,915.07 89.37,915.07 124.81,915.07" style="stroke:#000000;stroke-width:1;" fill="none" id="Admin-to-UC09"/><polygon points="129.81,915.07,120.81,911.07,124.81,915.07,120.81,919.07,129.81,915.07" fill="#000000" style="stroke:#000000;stroke-width:1;stroke-linejoin:miter;stroke-miterlimit:10;"/></g><!--link Admin to UC10--><g class="link" data-entity-1="ent0031" data-entity-2="ent0021" id="lnk48" data-source-line="122" data-link-type="dependency"><path d="M72.74,1076.9 C149.27,1076.9 333.23,1076.9 333.23,1076.9 C333.23,1076.9 333.23,1040.91 333.23,1023.62" style="stroke:#000000;stroke-width:1;" fill="none" id="Admin-to-UC10"/><polygon points="333.23,1018.62,329.23,1027.62,333.23,1023.62,337.23,1027.62,333.23,1018.62" fill="#000000" style="stroke:#000000;stroke-width:1;stroke-linejoin:miter;stroke-miterlimit:10;"/></g><!--link Admin to UC11--><g class="link" data-entity-1="ent0031" data-entity-2="ent0022" id="lnk49" data-source-line="123" data-link-type="dependency"><path d="M72.65,1120.49 C160.35,1120.49 394.23,1120.49 394.23,1120.49 C394.23,1120.49 394.23,1123.2 394.23,1120.18" style="stroke:#000000;stroke-width:1;" fill="none" id="Admin-to-UC11"/><polygon points="394.23,1115.18,390.23,1124.18,394.23,1120.18,398.23,1124.18,394.23,1115.18" fill="#000000" style="stroke:#000000;stroke-width:1;stroke-linejoin:miter;stroke-miterlimit:10;"/></g><!--link Admin to UC12--><g class="link" data-entity-1="ent0031" data-entity-2="ent0023" id="lnk50" data-source-line="124" data-link-type="dependency"><path d="M72.79,1080.04 C188.62,1080.04 571.23,1080.04 571.23,1080.04 C571.23,1080.04 571.23,1052.81 571.23,1032.41" style="stroke:#000000;stroke-width:1;" fill="none" id="Admin-to-UC12"/><polygon points="571.23,1027.41,567.23,1036.41,571.23,1032.41,575.23,1036.41,571.23,1027.41" fill="#000000" style="stroke:#000000;stroke-width:1;stroke-linejoin:miter;stroke-miterlimit:10;"/></g><!--link Admin to UC13--><g class="link" data-entity-1="ent0031" data-entity-2="ent0024" id="lnk51" data-source-line="125" data-link-type="dependency"><path d="M72.86,1125.97 C148.67,1125.97 329.23,1125.97 329.23,1125.97 C329.23,1125.97 329.23,1165.61 329.23,1180.96" style="stroke:#000000;stroke-width:1;" fill="none" id="Admin-to-UC13"/><polygon points="329.23,1185.96,333.23,1176.96,329.23,1180.96,325.23,1176.96,329.23,1185.96" fill="#000000" style="stroke:#000000;stroke-width:1;stroke-linejoin:miter;stroke-miterlimit:10;"/></g><!--link Admin to UC14--><g class="link" data-entity-1="ent0031" data-entity-2="ent0025" id="lnk52" data-source-line="126" data-link-type="dependency"><path d="M72.92,1131.45 C145.6,1131.45 313.23,1131.45 313.23,1131.45 C313.23,1131.45 313.23,1283.07 313.23,1283.07 C313.23,1283.07 313.08,1283.07 320.38,1283.07" style="stroke:#000000;stroke-width:1;" fill="none" id="Admin-to-UC14"/><polygon points="325.38,1283.07,316.38,1279.07,320.38,1283.07,316.38,1287.07,325.38,1283.07" fill="#000000" style="stroke:#000000;stroke-width:1;stroke-linejoin:miter;stroke-miterlimit:10;"/></g><!--link Admin to UC17--><g class="link" data-entity-1="ent0031" data-entity-2="ent0019" id="lnk53" data-source-line="127" data-link-type="dependency"><path d="M72.88,1073.76 C137.18,1073.76 273.23,1073.76 273.23,1073.76 C273.23,1073.76 273.23,432.07 273.23,432.07 C273.23,432.07 293.3,432.07 320.53,432.07" style="stroke:#000000;stroke-width:1;" fill="none" id="Admin-to-UC17"/><polygon points="325.53,432.07,316.53,428.07,320.53,432.07,316.53,436.07,325.53,432.07" fill="#000000" style="stroke:#000000;stroke-width:1;stroke-linejoin:miter;stroke-miterlimit:10;"/></g><!--link Admin to UC18--><g class="link" data-entity-1="ent0031" data-entity-2="ent0027" id="lnk54" data-source-line="128" data-link-type="dependency"><path d="M44.23,1060.96 C44.23,982.89 44.23,812.07 44.23,812.07 C44.23,812.07 83.72,812.07 124.73,812.07" style="stroke:#000000;stroke-width:1;" fill="none" id="Admin-to-UC18"/><polygon points="129.73,812.07,120.73,808.07,124.73,812.07,120.73,816.07,129.73,812.07" fill="#000000" style="stroke:#000000;stroke-width:1;stroke-linejoin:miter;stroke-miterlimit:10;"/></g><!--link Admin to UC19--><g class="link" data-entity-1="ent0031" data-entity-2="ent0028" id="lnk55" data-source-line="129" data-link-type="dependency"><path d="M29.23,1060.99 C29.23,964.88 29.23,720.07 29.23,720.07 C29.23,720.07 77.78,720.07 124.43,720.07" style="stroke:#000000;stroke-width:1;" fill="none" id="Admin-to-UC19"/><polygon points="129.43,720.07,120.43,716.07,124.43,720.07,120.43,724.07,129.43,720.07" fill="#000000" style="stroke:#000000;stroke-width:1;stroke-linejoin:miter;stroke-miterlimit:10;"/></g><!--link Admin to UC20--><g class="link" data-entity-1="ent0031" data-entity-2="ent0029" id="lnk56" data-source-line="130" data-link-type="dependency"><path d="M37.23,1060.87 C37.23,973.4 37.23,766.07 37.23,766.07 C37.23,766.07 217.16,766.07 320.46,766.07" style="stroke:#000000;stroke-width:1;" fill="none" id="Admin-to-UC20"/><polygon points="325.46,766.07,316.46,762.07,320.46,766.07,316.46,770.07,325.46,766.07" fill="#000000" style="stroke:#000000;stroke-width:1;stroke-linejoin:miter;stroke-miterlimit:10;"/></g><!--link Admin to UC21--><g class="link" data-entity-1="ent0031" data-entity-2="ent0030" id="lnk57" data-source-line="131" data-link-type="dependency"><path d="M22.23,1060.96 C22.23,949.73 22.23,633.36 22.23,633.36 C22.23,633.36 78.15,633.36 128.12,633.36" style="stroke:#000000;stroke-width:1;" fill="none" id="Admin-to-UC21"/><polygon points="133.12,633.36,124.12,629.36,128.12,633.36,124.12,637.36,133.12,633.36" fill="#000000" style="stroke:#000000;stroke-width:1;stroke-linejoin:miter;stroke-miterlimit:10;"/></g><!--link Alipay to UC15--><g class="link" data-entity-1="ent0032" data-entity-2="ent0017" id="lnk58" data-source-line="133" data-link-type="dependency"><path d="M243.2,1998.92 C262.79,1998.92 281.23,1998.92 281.23,1998.92 C281.23,1998.92 281.23,530.36 281.23,530.36 C281.23,530.36 296.73,530.36 320.19,530.36" style="stroke:#000000;stroke-width:1;" fill="none" id="Alipay-to-UC15"/><polygon points="325.19,530.36,316.19,526.36,320.19,530.36,316.19,534.36,325.19,530.36" fill="#000000" style="stroke:#000000;stroke-width:1;stroke-linejoin:miter;stroke-miterlimit:10;"/></g><!--link Alipay to UC16--><g class="link" data-entity-1="ent0032" data-entity-2="ent0018" id="lnk59" data-source-line="134" data-link-type="dependency"><path d="M243.02,2029.21 C327.2,2029.21 498.23,2029.21 498.23,2029.21 C498.23,2029.21 498.23,646.26 498.23,535.12" style="stroke:#000000;stroke-width:1;" fill="none" id="Alipay-to-UC16"/><polygon points="498.23,530.12,494.23,539.12,498.23,535.12,502.23,539.12,498.23,530.12" fill="#000000" style="stroke:#000000;stroke-width:1;stroke-linejoin:miter;stroke-miterlimit:10;"/></g><!--link UC15 to UC16--><g class="link" data-entity-1="ent0017" data-entity-2="ent0018" id="lnk60" data-source-line="136" data-link-type="dependency"><path d="M462.27,518.43 C472.96,518.43 479.05,518.43 489.88,518.43" style="stroke:#000000;stroke-width:1;stroke-dasharray:7,7;" fill="none" id="UC15-to-UC16"/><polygon points="494.88,518.43,485.88,514.43,489.88,518.43,485.88,522.43,494.88,518.43" fill="#000000" style="stroke:#000000;stroke-width:1;stroke-linejoin:miter;stroke-miterlimit:10;"/><text x="434.58" y="515.784" fill="#000000" font-size="9" lengthAdjust="spacing" textLength="43.6201" font-family="'Microsoft YaHei'">«include»</text></g><!--link UC15 to UC12--><g class="link" data-entity-1="ent0017" data-entity-2="ent0023" id="lnk61" data-source-line="137" data-link-type="dependency"><path d="M462.21,529.7 C472.76,529.7 480.23,529.7 480.23,529.7 C480.23,529.7 480.23,1005.77 480.23,1005.77 C480.23,1005.77 486.63,1005.77 501.32,1005.77" style="stroke:#000000;stroke-width:1;stroke-dasharray:7,7;" fill="none" id="UC15-to-UC12"/><polygon points="506.32,1005.77,497.32,1001.77,501.32,1005.77,497.32,1009.77,506.32,1005.77" fill="#000000" style="stroke:#000000;stroke-width:1;stroke-linejoin:miter;stroke-miterlimit:10;"/><text x="481.23" y="781.134" fill="#000000" font-size="9" lengthAdjust="spacing" textLength="43.6201" font-family="'Microsoft YaHei'">«include»</text></g><!--link UC10 to UC12--><g class="link" data-entity-1="ent0021" data-entity-2="ent0023" id="lnk62" data-source-line="138" data-link-type="dependency"><path d="M457.48,1016.36 C473.43,1016.36 485.51,1016.36 501.45,1016.36" style="stroke:#000000;stroke-width:1;stroke-dasharray:7,7;" fill="none" id="UC10-to-UC12"/><polygon points="506.45,1016.36,497.45,1012.36,501.45,1016.36,497.45,1020.36,506.45,1016.36" fill="#000000" style="stroke:#000000;stroke-width:1;stroke-linejoin:miter;stroke-miterlimit:10;"/><text x="438.96" y="1025.714" fill="#000000" font-size="9" lengthAdjust="spacing" textLength="42.3589" font-family="'Microsoft YaHei'">«extend»</text></g><!--link UC19 to UC20--><g class="link" data-entity-1="ent0028" data-entity-2="ent0029" id="lnk63" data-source-line="139" data-link-type="dependency"><path d="M265.08,720.07 C322.04,720.07 394.23,720.07 394.23,720.07 C394.23,720.07 394.23,731.5 394.23,744.72" style="stroke:#000000;stroke-width:1;stroke-dasharray:7,7;" fill="none" id="UC19-to-UC20"/><polygon points="394.23,749.72,398.23,740.72,394.23,744.72,390.23,740.72,394.23,749.72" fill="#000000" style="stroke:#000000;stroke-width:1;stroke-linejoin:miter;stroke-miterlimit:10;"/><text x="301.48" y="729.424" fill="#000000" font-size="9" lengthAdjust="spacing" textLength="42.3589" font-family="'Microsoft YaHei'">«extend»</text></g><!--link UC21 to UC10--><g class="link" data-entity-1="ent0030" data-entity-2="ent0021" id="lnk64" data-source-line="140" data-link-type="dependency"><path d="M265.08,628.07 C278.86,628.07 289.23,628.07 289.23,628.07 C289.23,628.07 289.23,1013.69 289.23,1013.69 C289.23,1013.69 301.23,1013.69 321.49,1013.69" style="stroke:#000000;stroke-width:1;stroke-dasharray:7,7;" fill="none" id="UC21-to-UC10"/><polygon points="326.49,1013.69,317.49,1009.69,321.49,1013.69,317.49,1017.69,326.49,1013.69" fill="#000000" style="stroke:#000000;stroke-width:1;stroke-linejoin:miter;stroke-miterlimit:10;"/><text x="246.23" y="836.794" fill="#000000" font-size="9" lengthAdjust="spacing" textLength="42.3589" font-family="'Microsoft YaHei'">«extend»</text></g><?plantuml-src fLPTJzn657tthxZTFlGfoEFzhkXAGA6LgbQLI1ygLQhSzG0MnbvvZL8Q8IMY0HGf3QG44a43Mm7b9GjIjwW14luC_jX_qV7CUF5uJ8EKsQSxzzovPyxSUxqVEItFT6oOqMtZdcjw7hPXIhVQM57QiwRTqbrz3YpJnjv22uFZUZDEok4wyxRHT5mRkr1EHnXuIf-tl0d7zhxHvp0KlZQRhjDsfZpuNlyIcuLyxAJv2mPKp7UEEPRZmiT5kjB9zARdk9FUWeMXPUccdNN1VGLWr74DxF8pLBe6ktTdpEQiZTjjK8TgP3TDXLbYt68w-tmRD_KsPadqvkmq5OK7J8nFZ8-DPzFNHYjrLCf9ZuRAGdhj_UbR9AK-VLDwkcvzUoGaHxd9EOAg_PDZ6I8R5pSztPwsRk8p4lzkpKUxnLlyFn_TTPrxb4iswePRrz-lkEqOk8rRK57J5zVjsNXJqnJb4_Zi0vPYOT8bdWEkEJtZWM76cf8MLHHMp0N_zM6uiLi0lGsJtho1RI_n15kd_QtU3_RmSFZtUNY-6_rrw3zTRpGezguvHvhw-e7YSuAzZj-zZ5QVXDrEkBOSR9n6lJSija1K8reavSMpClJLPITuUCnYwDdVVlN5ZoDKPXZqG-6xCHM1__Qv_-Y01RCm6X3x9BG6mUv1TFnd7bgJq4K8jdl1vaaUkYYXI-2lxlLVxkUXIrcqHfYyF8kMtlhFZWYV_bOtVBt1qLhCP56KXeh2nEjtteJRtOmqepdIbBaqwR24K5b2LxWqUUYAXAv2UB4PlLlFGrSbT8rBauUkIUWwH2TBmVCUGmTxA_xASeAkozBi78Ldb-55Zs07Sdmkou7A46mSNvs_yBj_I36nMmgey83m_FVWrOw__OhGylT_JMIF4L9CTQ1Y71brJyWJ9EYgn9qnOAZCWuxbt405KbZ1wXeFwntwJmQ7gn8QSIeYJke9fF4gPxZmyMdmu662bde25S4_lY15bQQUeAMUG2MANZdBGvSaEVXm85EbsxdwzxVWyK7KEHeeCfwZI0ruaImzyfV_OP79-L9XeJhNZyTS7n_xf0vLEVSSj2QfhI7eFtWNxEmo5OEdQ_tbPmaQqPikNe_Nr43qrrzGs8WnH_vM95CsALHUW7HSnaFNtz_iBnqncm_T4SjiwGiV_4bG-A27EtSQR1gA6wG_CXlLp4RyNOg_08bVJLj40uLUCJaVYQOccaNHB8bcMJGhebaLpPferWMJa1HCaHKIMI6H5H9P8J4l4lCYCQycvgNgq7UyLbkqAuf2HzZG43FXKnWUDkscHLwWqH1ycknJHH_-cVm7DvYhpbsat3CkKj8yIdJz1m00?></g></svg>